# xmcd
#
# Track frame offsets: 
#        150
#        22604
#        41238
#        64323
#        84858
#        98876
#        126674
#        151707
#        173517
#        198944
#        217503
#        236115
#
# Disc length: 3406 seconds
#
# Revision: 0
# Processed by: cddbd v1.5.2PL0 Copyright (c) Steve Scherf et al.
# Submitted via: ExactAudioCopy v1.3
#
DISCID=8f0d4c0c
DTITLE=原田真二 - Shinji Harada 1992-1996 Columbia Years Complete  - Miracl
DTITLE=e Love [04 - unplugged and plugged]
DYEAR=2017
DGENRE=JPop
TTITLE0=てぃーんず ぶるーす
TTITLE1=キャンディ
TTITLE2=シャドー・ボクサー
TTITLE3=JOY
TTITLE4=LIFE
TTITLE5=Breathe
TTITLE6=瞳いっぱいの涙
TTITLE7=フライデーナイト レビュー
TTITLE8=パイナップル アイランド (English Version)
TTITLE9=キャンドルの瞳
TTITLE10=波を聴いた夜 -Love Affair-
TTITLE11=タイム・トラベル
EXTD=
EXTT0=
EXTT1=
EXTT2=
EXTT3=
EXTT4=
EXTT5=
EXTT6=
EXTT7=
EXTT8=
EXTT9=
EXTT10=
EXTT11=
PLAYORDER=
